<svg xmlns="http://www.w3.org/2000/svg" viewBox="0 0 32 32" fill="none">
  <rect x="4" y="6" width="24" height="18" rx="2.5" stroke="#ff523b" stroke-width="2" stroke-linecap="round" stroke-linejoin="round" />
  <path d="M13 24l-2 4h10l-2-4z" stroke="#ff523b" stroke-width="1.8" stroke-linejoin="round" stroke-linecap="round" />
  <path d="M9 11c-.5 0-1 .3-1 1v1c0 .5-.3.5-.5.5.2 0 .5 0 .5.5v1c0 .7.5 1 1 1" stroke="#ff523b" stroke-width="1.2" stroke-linecap="round" />
  <circle cx="13" cy="14" r="1" fill="#ff523b" />
  <circle cx="19" cy="14" r="1" fill="#ff523b" />
  <path d="M14 17q2 1.5 4 0" stroke="#ff523b" stroke-width="1.2" stroke-linecap="round" />
  <path d="M23 11c.5 0 1 .3 1 1v1c0 .5.3.5.5.5-.2 0-.5 0-.5.5v1c0 .7-.5 1-1 1" stroke="#ff523b" stroke-width="1.2" stroke-linecap="round" />
</svg>
